<?xml version="1.0" standalone="no"?>
<!DOCTYPE svg PUBLIC "-//W3C//DTD SVG 20010904//EN"
 "http://www.w3.org/TR/2001/REC-SVG-20010904/DTD/svg10.dtd">
<svg version="1.0" xmlns="http://www.w3.org/2000/svg"
 width="164.000000pt" height="153.000000pt" viewBox="0 0 164.000000 153.000000"
 preserveAspectRatio="xMidYMid meet">

<g transform="translate(0.000000,153.000000) scale(0.100000,-0.100000)"
fill="#000000" stroke="none">
<path d="M610 1440 c-19 -19 -20 -33 -20 -205 0 -102 2 -185 4 -185 2 0 44 19
93 42 51 24 102 42 123 42 29 -1 115 -34 193 -75 16 -9 17 2 17 176 0 243 17
225 -215 225 -162 0 -177 -2 -195 -20z"/>
<path d="M152 1318 c-8 -8 -12 -65 -12 -188 l0 -177 25 -11 c16 -7 78 -12 153
-12 l128 0 47 48 47 48 0 140 c0 96 -4 144 -12 152 -8 8 -64 12 -188 12 -124
0 -180 -4 -188 -12z"/>
<path d="M1080 1311 c-5 -11 -10 -79 -10 -153 l0 -134 45 -44 46 -45 138 -3
c118 -3 140 -1 155 13 14 15 16 40 14 198 l-3 182 -187 3 c-177 2 -188 1 -198
-17z"/>
<path d="M689 1021 c-147 -73 -173 -91 -206 -149 l-28 -47 -3 -347 -3 -348
355 0 356 0 0 338 c0 333 0 338 -24 387 -32 69 -54 86 -201 160 -71 36 -129
65 -129 65 -1 -1 -53 -27 -117 -59z m187 -174 c38 -18 84 -39 103 -47 l33 -13
-4 -126 c-3 -89 -9 -135 -20 -156 -20 -37 -113 -127 -155 -149 -31 -15 -32
-15 -91 24 -117 78 -144 135 -140 297 l3 116 100 43 c55 23 100 43 101 43 0 1
32 -14 70 -32z"/>
<path d="M750 688 c-22 -35 -20 -71 5 -98 8 -8 15 -40 17 -70 3 -54 4 -55 36
-58 l32 -3 0 60 c0 33 5 63 11 66 34 22 27 105 -11 125 -37 20 -69 12 -90 -22z"/>
<path d="M157 862 c-14 -16 -17 -43 -17 -174 0 -195 -5 -188 142 -188 l106 0
5 168 c2 92 7 177 12 190 l7 22 -119 0 c-103 0 -122 -3 -136 -18z"/>
<path d="M1205 858 c5 -13 10 -98 12 -190 l5 -168 104 0 c147 0 144 -4 144
193 0 195 7 187 -154 187 -118 0 -118 0 -111 -22z"/>
<path d="M170 437 c-24 -12 -25 -15 -28 -141 -3 -169 -6 -166 140 -166 l109 0
-3 158 -3 157 -95 3 c-62 1 -104 -2 -120 -11z"/>
<path d="M1220 291 l0 -161 108 0 c144 0 142 -2 142 157 0 156 -1 157 -146
161 l-104 4 0 -161z"/>
</g>
</svg>